<svg width="142" height="35" viewBox="0 0 142 35" fill="none" xmlns="http://www.w3.org/2000/svg">
<path d="M55.9038 24.984C54.6238 24.984 53.3998 24.776 52.2318 24.36C51.0638 23.944 50.0718 23.272 49.2558 22.344C48.4558 21.4 47.9838 20.184 47.8398 18.696H51.4158C51.6878 19.896 52.2318 20.752 53.0478 21.264C53.8638 21.776 54.8238 22.032 55.9278 22.032C56.9358 22.032 57.7438 21.824 58.3518 21.408C58.9598 20.976 59.2638 20.344 59.2638 19.512C59.2638 18.92 59.0718 18.448 58.6878 18.096C58.3038 17.728 57.8158 17.456 57.2238 17.28C56.6478 17.088 55.8558 16.88 54.8478 16.656C53.4718 16.352 52.3598 16.04 51.5118 15.72C50.6798 15.4 49.9598 14.896 49.3518 14.208C48.7438 13.52 48.4398 12.576 48.4398 11.376C48.4398 10.224 48.7198 9.248 49.2798 8.448C49.8398 7.632 50.6078 7.024 51.5838 6.624C52.5598 6.208 53.6718 6 54.9198 6C56.1358 6 57.2638 6.216 58.3038 6.648C59.3438 7.064 60.2158 7.712 60.9198 8.592C61.6238 9.456 62.0718 10.52 62.2638 11.784H58.7358C58.5118 10.84 58.0478 10.136 57.3438 9.672C56.6558 9.192 55.8238 8.952 54.8478 8.952C53.9518 8.952 53.2318 9.144 52.6878 9.528C52.1438 9.896 51.8718 10.416 51.8718 11.088C51.8718 11.616 52.0558 12.04 52.4238 12.36C52.7918 12.68 53.2478 12.928 53.7918 13.104C54.3358 13.28 55.0958 13.48 56.0718 13.704C57.4638 14.008 58.5998 14.328 59.4798 14.664C60.3758 15 61.1438 15.544 61.7838 16.296C62.4238 17.048 62.7438 18.064 62.7438 19.344C62.7438 21.088 62.1358 22.464 60.9198 23.472C59.7198 24.48 58.0478 24.984 55.9038 24.984Z" fill="#6A3DED"/>
<path d="M68.4388 24.648H65.1988V6.336H68.4388V16.152L73.3588 11.184H77.4628L71.5108 17.016L77.8948 24.648H73.9108L68.4388 17.952V24.648Z" fill="#6A3DED"/>
<path d="M82.7117 24.648H79.4717V11.184H82.7117V24.648ZM81.1037 9.696C80.5437 9.696 80.0717 9.528 79.6877 9.192C79.3037 8.856 79.1117 8.408 79.1117 7.848C79.1117 7.32 79.3037 6.88 79.6877 6.528C80.0717 6.176 80.5437 6 81.1037 6C81.6477 6 82.1117 6.176 82.4957 6.528C82.8957 6.88 83.0957 7.32 83.0957 7.848C83.0957 8.392 82.9037 8.84 82.5197 9.192C82.1357 9.528 81.6637 9.696 81.1037 9.696Z" fill="#6A3DED"/>
<path d="M88.7312 24.648C87.7072 24.648 86.9312 24.416 86.4032 23.952C85.8752 23.472 85.6112 22.72 85.6112 21.696V6.336H88.8512V20.736C88.8512 21.184 88.9312 21.504 89.0912 21.696C89.2672 21.872 89.5552 21.96 89.9552 21.96H90.8192V24.648H88.7312Z" fill="#6A3DED"/>
<path d="M95.9733 24.648C94.9493 24.648 94.1733 24.416 93.6453 23.952C93.1173 23.472 92.8533 22.72 92.8533 21.696V6.336H96.0933V20.736C96.0933 21.184 96.1733 21.504 96.3333 21.696C96.5093 21.872 96.7973 21.96 97.1973 21.96H98.0613V24.648H95.9733Z" fill="#6A3DED"/>
<path d="M104.032 24.912C102.72 24.912 101.656 24.568 100.84 23.88C100.024 23.176 99.6155 22.2 99.6155 20.952C99.6155 19.608 100.128 18.584 101.152 17.88C101.888 17.368 102.936 16.984 104.296 16.728L108.304 15.984C108.272 15.152 108.056 14.52 107.656 14.088C107.256 13.656 106.656 13.44 105.856 13.44C105.232 13.44 104.68 13.624 104.2 13.992C103.736 14.36 103.448 14.856 103.336 15.48H100.12C100.344 13.992 101 12.856 102.088 12.072C103.176 11.288 104.44 10.896 105.88 10.896C106.696 10.896 107.456 11.016 108.16 11.256C108.864 11.48 109.464 11.816 109.96 12.264C110.456 12.696 110.816 13.2 111.04 13.776C111.264 14.352 111.4 14.928 111.448 15.504C111.512 16.08 111.544 16.792 111.544 17.64V24.648H108.304V22.824C107.968 23.416 107.56 23.864 107.08 24.168C106.328 24.664 105.312 24.912 104.032 24.912ZM104.824 22.368C105.464 22.368 106.04 22.24 106.552 21.984C107.224 21.648 107.688 21.2 107.944 20.64C108.2 20.08 108.344 19.32 108.376 18.36L105.16 19.008C104.296 19.168 103.672 19.424 103.288 19.776C103 20.064 102.856 20.416 102.856 20.832C102.856 21.328 103.032 21.712 103.384 21.984C103.752 22.24 104.232 22.368 104.824 22.368Z" fill="#6A3DED"/>
<path d="M114.323 24.648V11.184H117.563V12.888C118.075 12.168 118.627 11.656 119.219 11.352C119.811 11.048 120.483 10.896 121.235 10.896C123.315 10.896 124.715 11.648 125.435 13.152C125.675 13.68 125.827 14.216 125.891 14.76C125.955 15.304 125.987 16.016 125.987 16.896V24.648H122.771V16.848C122.771 15.552 122.547 14.656 122.099 14.16C121.715 13.76 121.147 13.56 120.395 13.56C119.483 13.56 118.803 13.832 118.355 14.376C118.083 14.696 117.883 15.128 117.755 15.672C117.627 16.2 117.563 16.904 117.563 17.784V24.648H114.323Z" fill="#6A3DED"/>
<path d="M135.046 29.76C133.446 29.76 132.07 29.424 130.918 28.752C129.782 28.096 129.078 26.968 128.806 25.368H132.07C132.278 26.024 132.622 26.496 133.102 26.784C133.582 27.088 134.222 27.24 135.022 27.24C136.078 27.24 136.862 27 137.374 26.52C137.886 26.04 138.142 25.384 138.142 24.552V22.656C137.614 23.392 137.046 23.904 136.438 24.192C135.846 24.48 135.134 24.624 134.302 24.624C133.15 24.624 132.126 24.336 131.23 23.76C130.334 23.168 129.638 22.352 129.142 21.312C128.646 20.272 128.398 19.104 128.398 17.808C128.398 16.48 128.646 15.296 129.142 14.256C129.638 13.2 130.334 12.376 131.23 11.784C132.126 11.192 133.15 10.896 134.302 10.896C135.134 10.896 135.846 11.048 136.438 11.352C137.046 11.64 137.614 12.152 138.142 12.888V11.184H141.382V23.784C141.382 25.944 140.814 27.48 139.678 28.392C138.558 29.304 137.014 29.76 135.046 29.76ZM135.07 21.84C135.742 21.84 136.342 21.664 136.87 21.312C137.398 20.96 137.806 20.472 138.094 19.848C138.398 19.224 138.55 18.528 138.55 17.76C138.55 16.992 138.398 16.296 138.094 15.672C137.806 15.048 137.398 14.56 136.87 14.208C136.342 13.856 135.742 13.68 135.07 13.68C134.046 13.68 133.222 14.072 132.598 14.856C131.974 15.624 131.662 16.592 131.662 17.76C131.662 18.928 131.974 19.904 132.598 20.688C133.222 21.456 134.046 21.84 135.07 21.84Z" fill="#6A3DED"/>
<path d="M82.7127 11.148H79.4998V24.648H82.7127V11.148Z" fill="#6A3DED"/>
<path d="M31 0H4C1.79086 0 0 1.79086 0 4V31C0 33.2091 1.79086 35 4 35H31C33.2091 35 35 33.2091 35 31V4C35 1.79086 33.2091 0 31 0Z" fill="#6A3DED"/>
<circle cx="12.75" cy="21.75" r="4.75" fill="white"/>
<path d="M23.5 9H13C11.3431 9 10 10.3431 10 12C10 13.6569 11.3431 15 13 15H17.5C19.1569 15 20.5 16.3431 20.5 18V22.5C20.5 24.1569 21.8431 25.5 23.5 25.5C25.1569 25.5 26.5 24.1569 26.5 22.5V12C26.5 10.3431 25.1569 9 23.5 9Z" fill="white"/>
</svg>
